<svg width="16" height="16" viewBox="0 0 16 16" fill="none" xmlns="http://www.w3.org/2000/svg">
<g clip-path="url(#clip0_126_2068)">
<path d="M11.84 0.47998H3.84005C3.09338 0.47998 2.50671 1.06665 2.50671 1.81331V14.1866C2.50671 14.9333 3.09338 15.5733 3.89338 15.5733H7.25338H9.06671H11.84C12.5867 15.5733 13.2267 14.9866 13.2267 14.1866V1.81331C13.2267 1.06665 12.64 0.47998 11.84 0.47998ZM6.56005 1.43998H9.22671C9.33338 1.43998 9.44005 1.54665 9.44005 1.65331C9.44005 1.75998 9.33338 1.86665 9.22671 1.86665H6.56005C6.45338 1.86665 6.34671 1.75998 6.34671 1.65331C6.34671 1.54665 6.40005 1.43998 6.56005 1.43998ZM7.84005 14.5066C7.30671 14.5066 6.88005 14.08 6.88005 13.5466C6.88005 13.0133 7.30671 12.5866 7.84005 12.5866C8.37338 12.5866 8.80005 13.0133 8.80005 13.5466C8.80005 14.08 8.37338 14.5066 7.84005 14.5066Z" fill="#00BBB5"/>
</g>
<defs>
<clipPath id="clip0_126_2068">
<rect width="16" height="16" fill="white"/>
</clipPath>
</defs>
</svg>
