<svg width="14" height="14" viewBox="0 0 14 14" fill="none" xmlns="http://www.w3.org/2000/svg">
<path d="M3.52324 10.2812C3.55059 10.2812 3.57793 10.2785 3.60527 10.2744L5.90488 9.87109C5.93223 9.86563 5.9582 9.85332 5.97734 9.83281L11.7729 4.0373C11.8262 3.98398 11.8262 3.89785 11.7729 3.84453L9.50059 1.5709C9.47461 1.54492 9.44043 1.53125 9.40352 1.53125C9.3666 1.53125 9.33242 1.54492 9.30645 1.5709L3.51094 7.36641C3.49043 7.38691 3.47812 7.41152 3.47266 7.43887L3.06934 9.73848C3.04336 9.89023 3.08984 10.0379 3.19785 10.1459C3.28809 10.2334 3.40156 10.2812 3.52324 10.2812ZM4.44473 7.89687L9.40352 2.93945L10.4057 3.9416L5.44687 8.89902L4.23145 9.11367L4.44473 7.89687ZM12.0312 11.4297H1.96875C1.72676 11.4297 1.53125 11.6252 1.53125 11.8672V12.3594C1.53125 12.4195 1.58047 12.4688 1.64062 12.4688H12.3594C12.4195 12.4688 12.4688 12.4195 12.4688 12.3594V11.8672C12.4688 11.6252 12.2732 11.4297 12.0312 11.4297Z" fill="#666666"/>
</svg>
