<svg width="145" height="28" viewBox="0 0 145 28" fill="none" xmlns="http://www.w3.org/2000/svg">
<g clip-path="url(#clip0_131_3586)">
<path d="M43.2051 11.7954V8.69487H48.8384V10.9946H51.1V7.1754H43.2051V6.47727H49.6197V4.75247H34.4261V6.47727H40.7996V7.1754H33.0486V10.9946H35.2074V8.69487H40.7996V11.7954H43.2051ZM48.1394 10.7071V9.393H43.8424V10.7071H48.1394ZM40.1417 10.7071V9.393H35.8859V10.7071H40.1417ZM48.6328 12.8221V11.4463H43.8424V12.8221H48.6328ZM40.1623 12.8221V11.4463H35.4335V12.8221H40.1623ZM33.5215 17.1957C36.2148 16.5797 39.2165 15.5941 41.7042 14.3415C44.0891 15.4914 47.7282 16.6002 50.4421 17.1135C50.771 16.5386 51.4084 15.6557 51.9223 15.1834C49.1879 14.8549 45.6722 14.0951 43.534 13.2943C43.6779 13.2122 43.8219 13.1095 43.9452 13.0274L42.1565 11.8775C39.895 13.4381 35.6391 14.7111 32.2057 15.3477C32.7197 15.861 33.2337 16.6618 33.5215 17.1957ZM46.104 23.5405L47.0703 21.7746C46.4535 21.5487 45.6517 21.2613 44.8087 20.9738C46.4946 20.0909 48.3244 19.0026 49.4552 17.8527L47.8927 16.7645L47.5637 16.8877H42.8761L43.5546 16.3538C43.164 15.861 42.321 15.1423 41.6631 14.6495L40.2445 15.6967C40.6557 16.0253 41.1491 16.477 41.5192 16.8877H35.1046V18.6125H45.2405C44.2125 19.1874 43.0406 19.7007 41.9921 20.1114C40.6351 19.7418 39.2576 19.4133 38.1063 19.1669L37.1811 20.6453C40.1211 21.3639 44.1097 22.6165 46.104 23.5405ZM72.153 7.3602V5.5122H66.643C66.4374 4.9578 66.129 4.30074 65.8001 3.74634L63.7647 4.36234C63.9497 4.69087 64.1142 5.10154 64.2787 5.5122H58.6659V7.3602H72.153ZM53.526 20.0293C55.0885 19.4338 56.9594 18.7357 58.7276 18.0375L58.3369 15.9842L57.1239 16.4154V11.1178H58.707V8.81807H57.1239V4.38287H55.1502V8.81807H53.2587V11.1178H55.1502V17.0725C54.3073 17.3394 53.5671 17.5653 52.9298 17.7501L53.526 20.0293ZM61.5854 23.2325C61.9965 23.0066 62.6339 22.8013 66.2524 22.1031C66.1907 21.6514 66.1496 20.8711 66.1701 20.3167L63.3535 20.789V19.5159C64.0319 19.1258 64.6487 18.7357 65.2038 18.2839C66.3141 20.7479 68.1644 22.4111 71.0839 23.1709C71.3512 22.637 71.9268 21.7951 72.3997 21.3639C71.2484 21.1586 70.2821 20.8095 69.4391 20.2962C70.1793 19.9471 70.9811 19.5159 71.7007 19.0026L70.2409 17.9143H72.2352V16.3333H69.0485V15.5941H71.2278V14.2799H69.0485V13.5613H71.5568V12.0213H69.0485V11.2821H71.31V7.93514H65.9234V11.2821H66.9309V12.0213H63.9703V11.241H64.9571V7.93514H59.735V11.241H61.8937V12.0213H59.3444V13.5613H61.8937V14.2799H59.8583V15.5941H61.8937V16.3333H58.8715V17.9143H62.86C61.2975 18.8178 59.1799 19.4954 57.2062 19.9266C57.5762 20.2962 58.1519 21.1175 58.3781 21.5282C59.4266 21.2202 60.5368 20.8711 61.5648 20.3989C61.5442 21.1791 61.1742 21.5282 60.8452 21.713C61.1125 22.0415 61.462 22.8218 61.5854 23.2325ZM63.1479 10.0911H61.4414V9.085H63.1479V10.0911ZM69.5008 10.1322H67.671V9.085H69.5008V10.1322ZM66.9309 14.2799H63.9703V13.5613H66.9309V14.2799ZM66.9309 16.3333H63.9703V15.5941H66.9309V16.3333ZM68.0616 19.2285C67.6916 18.8589 67.342 18.4071 67.0748 17.9143H70.097C69.583 18.325 68.7812 18.8589 68.0616 19.2285ZM80.8086 21.7541C84.8383 21.7541 87.6138 18.7357 87.6138 13.8077C87.6138 8.87967 84.8383 5.98447 80.8086 5.98447C76.7789 5.98447 74.0034 8.85914 74.0034 13.8077C74.0034 18.7357 76.7789 21.7541 80.8086 21.7541ZM80.8086 19.1258C78.547 19.1258 77.1078 17.0519 77.1078 13.8077C77.1078 10.5429 78.547 8.5922 80.8086 8.5922C83.0701 8.5922 84.5093 10.5429 84.5093 13.8077C84.5093 17.0519 83.0701 19.1258 80.8086 19.1258ZM93.6378 21.4666V15.7173H95.7554L98.8805 21.4666H102.273L98.716 15.245C100.464 14.5674 101.615 13.1506 101.615 10.8714C101.615 7.38074 99.0861 6.27194 95.8993 6.27194H90.5949V21.4666H93.6378ZM95.6115 13.3149H93.6378V8.67434H95.6115C97.5647 8.67434 98.6338 9.22874 98.6338 10.8714C98.6338 12.4935 97.5647 13.3149 95.6115 13.3149ZM105.747 21.4666L106.816 17.5653H111.751L112.82 21.4666H116.007L111.113 6.27194H107.536L102.663 21.4666H105.747ZM111.093 15.2039H107.474L107.927 13.5407C108.379 11.9597 108.831 10.2349 109.222 8.57167H109.304C109.756 10.2143 110.168 11.9597 110.641 13.5407L111.093 15.2039ZM120.674 21.4666V15.3682C120.674 13.6229 120.447 11.7133 120.304 10.0706H120.406L121.948 13.3354L126.348 21.4666H129.432V6.27194H126.554V12.3293C126.554 14.0541 126.78 16.0663 126.944 17.6474H126.842L125.32 14.3621L120.9 6.27194H117.795V21.4666H120.674ZM139.732 21.7541C141.85 21.7541 143.639 20.9327 144.667 19.9266V13.0685H139.26V15.553H141.953V18.5509C141.521 18.9205 140.781 19.1258 140.041 19.1258C137.06 19.1258 135.538 17.1341 135.538 13.8282C135.538 10.5634 137.306 8.5922 139.835 8.5922C141.213 8.5922 142.076 9.1466 142.816 9.86527L144.441 7.93514C143.454 6.929 141.932 5.98447 139.732 5.98447C135.682 5.98447 132.434 8.92074 132.434 13.9309C132.434 19.0026 135.579 21.7541 139.732 21.7541Z" fill="white"/>
<path opacity="0.8" fill-rule="evenodd" clip-rule="evenodd" d="M9.02901 11.8154C9.02901 9.04598 11.2464 6.79287 13.9734 6.79287C16.6998 6.79287 18.9186 9.04598 18.9186 11.8154V16.1846C18.9186 18.954 16.6998 21.2072 13.9734 21.2072C11.2464 21.2072 9.02901 18.954 9.02901 16.1846V11.8154ZM24.687 27.0667V11.8154C24.687 5.81534 19.8809 0.93335 13.9734 0.93335L3.26062 11.8147V11.8154V16.1846C3.26062 22.1939 8.05764 27.0667 13.9734 27.0667H24.687Z" fill="white"/>
<path fill-rule="evenodd" clip-rule="evenodd" d="M8.89064 11.8154H3.26062L13.9748 0.93335V6.6509C13.9748 9.50367 11.6983 11.8154 8.89064 11.8154Z" fill="white"/>
</g>
<defs>
<clipPath id="clip0_131_3586">
<rect width="144.667" height="28" fill="white"/>
</clipPath>
</defs>
</svg>
