<svg width="14" height="14" viewBox="0 0 14 14" fill="none" xmlns="http://www.w3.org/2000/svg">
<path d="M1.40002 6.7586C1.40002 6.91075 1.42999 7.06141 1.48822 7.20198C1.54645 7.34255 1.63179 7.47028 1.73938 7.57786C1.84696 7.68545 1.97469 7.7708 2.11526 7.82902C2.25583 7.88725 2.40649 7.91722 2.55865 7.91722C2.7108 7.91722 2.86146 7.88725 3.00203 7.82902C3.1426 7.7708 3.27033 7.68545 3.37791 7.57786C3.4855 7.47028 3.57084 7.34255 3.62907 7.20198C3.6873 7.06141 3.71727 6.91075 3.71727 6.7586C3.71727 6.60644 3.6873 6.45578 3.62907 6.31521C3.57084 6.17464 3.4855 6.04692 3.37791 5.93933C3.27033 5.83174 3.1426 5.7464 3.00203 5.68817C2.86146 5.62994 2.7108 5.59998 2.55865 5.59998C2.40649 5.59998 2.25583 5.62994 2.11526 5.68817C1.97469 5.7464 1.84696 5.83174 1.73938 5.93933C1.63179 6.04692 1.54645 6.17464 1.48822 6.31521C1.42999 6.45578 1.40002 6.60644 1.40002 6.7586V6.7586ZM5.8414 6.7586C5.8414 7.06588 5.96347 7.36058 6.18076 7.57786C6.39804 7.79515 6.69274 7.91722 7.00002 7.91722C7.30731 7.91722 7.60201 7.79515 7.81929 7.57786C8.03658 7.36058 8.15864 7.06588 8.15864 6.7586C8.15864 6.45131 8.03658 6.15661 7.81929 5.93933C7.60201 5.72204 7.30731 5.59998 7.00002 5.59998C6.69274 5.59998 6.39804 5.72204 6.18076 5.93933C5.96347 6.15661 5.8414 6.45131 5.8414 6.7586V6.7586ZM10.2828 6.7586C10.2828 7.06588 10.4049 7.36058 10.6221 7.57786C10.8394 7.79515 11.1341 7.91722 11.4414 7.91722C11.7487 7.91722 12.0434 7.79515 12.2607 7.57786C12.478 7.36058 12.6 7.06588 12.6 6.7586C12.6 6.45131 12.478 6.15661 12.2607 5.93933C12.0434 5.72204 11.7487 5.59998 11.4414 5.59998C11.1341 5.59998 10.8394 5.72204 10.6221 5.93933C10.4049 6.15661 10.2828 6.45131 10.2828 6.7586V6.7586Z" fill="#666666"/>
</svg>
