<svg width="44" height="44" viewBox="0 0 44 44" fill="none" xmlns="http://www.w3.org/2000/svg">
<rect width="44" height="44" rx="4" fill="#1890FF"/>
<path d="M32.4759 13.8672H24.3394C24.1931 12.7972 23.6646 11.8162 22.8515 11.1054C22.0384 10.3946 20.9956 10.002 19.9156 10H11.2211C10.8972 10 10.5866 10.1286 10.3576 10.3576C10.1286 10.5866 10 10.8972 10 11.2211V31.8519C10 32.6949 10.684 33.3775 11.5256 33.3775H32.4744C33.3175 33.3775 34 32.6934 34 31.8519V15.3928C34.0002 15.1926 33.9609 14.9942 33.8844 14.8091C33.8079 14.624 33.6957 14.4559 33.5541 14.3142C33.4126 14.1725 33.2445 14.0601 33.0595 13.9834C32.8745 13.9067 32.6762 13.8672 32.4759 13.8672V13.8672ZM14.4613 27.0441C14.0473 27.0441 13.7112 26.711 13.7112 26.2985C13.7112 25.886 14.0473 25.553 14.4613 25.553C14.8753 25.553 15.2113 25.886 15.2113 26.2985C15.2113 26.711 14.8753 27.0441 14.4613 27.0441ZM14.4613 21.5222C14.0473 21.5222 13.7112 21.1892 13.7112 20.7767C13.7112 20.3641 14.0473 20.0311 14.4613 20.0311C14.8753 20.0311 15.2113 20.3641 15.2113 20.7767C15.2113 21.1892 14.8753 21.5222 14.4613 21.5222ZM30.2798 26.312C30.2794 26.5184 30.1972 26.7162 30.0513 26.8621C29.9054 27.008 29.7076 27.0902 29.5012 27.0906H17.556C17.3496 27.0902 17.1518 27.008 17.0059 26.8621C16.86 26.7162 16.7778 26.5184 16.7774 26.312V26.285C16.7778 26.0787 16.86 25.8809 17.0059 25.7349C17.1518 25.589 17.3496 25.5069 17.556 25.5065H29.5012C29.7076 25.5069 29.9054 25.589 30.0513 25.7349C30.1972 25.8809 30.2794 26.0787 30.2798 26.285V26.312ZM30.2798 20.7902C30.2794 20.9965 30.1972 21.1943 30.0513 21.3403C29.9054 21.4862 29.7076 21.5683 29.5012 21.5687H17.556C17.3496 21.5683 17.1518 21.4862 17.0059 21.3403C16.86 21.1943 16.7778 20.9965 16.7774 20.7902V20.7632C16.7778 20.5568 16.86 20.359 17.0059 20.2131C17.1518 20.0672 17.3496 19.985 17.556 19.9846H29.5012C29.7076 19.985 29.9054 20.0672 30.0513 20.2131C30.1972 20.359 30.2794 20.5568 30.2798 20.7632V20.7902V20.7902Z" fill="white"/>
</svg>
