<svg width="15" height="14" viewBox="0 0 15 14" fill="none" xmlns="http://www.w3.org/2000/svg">
<path fill-rule="evenodd" clip-rule="evenodd" d="M7.13867 0.875C7.01699 0.875 6.89531 0.921484 6.80371 1.01309L4.67227 3.14453C4.48906 3.3291 4.48906 3.62852 4.67363 3.81309C4.85684 3.99766 5.15625 3.99766 5.34082 3.81309L6.66563 2.48828V10.3879C6.66563 10.649 6.87754 10.8609 7.13867 10.8609C7.3998 10.8609 7.61172 10.649 7.61172 10.3879V2.48828L8.93652 3.81309C9.02539 3.90195 9.14434 3.95117 9.27012 3.95117C9.3959 3.95117 9.51484 3.90195 9.60371 3.81309C9.78828 3.62852 9.78828 3.3291 9.60371 3.14453L7.47363 1.01309C7.38066 0.921484 7.26035 0.875 7.13867 0.875ZM12.3039 9.22852C12.3039 8.96738 12.5158 8.75547 12.777 8.75547C13.0381 8.75547 13.25 8.96738 13.25 9.22715V12.2746C13.25 12.7422 12.8699 13.1236 12.401 13.1236H1.84902C1.38145 13.1236 1 12.7436 1 12.2746V9.22715C1 8.96738 1.21055 8.7541 1.47168 8.7541C1.73281 8.7541 1.94473 8.96602 1.94473 9.22715V11.9C1.94473 12.0559 2.07188 12.1816 2.22637 12.1816H12.0223C12.1781 12.1816 12.3039 12.0545 12.3039 11.9V9.22852Z" fill="black" fill-opacity="0.45"/>
</svg>
