<svg width="16" height="16" viewBox="0 0 16 16" fill="none" xmlns="http://www.w3.org/2000/svg">
<g clip-path="url(#clip0_126_2028)">
<path d="M8 0C3.58172 0 0 3.58172 0 8C0 12.4183 3.58172 16 8 16C12.4183 16 16 12.4183 16 8C16 5.87827 15.1571 3.84344 13.6569 2.34315C12.1566 0.842855 10.1217 0 8 0ZM12.0112 7.19041C11.6994 7.69025 11.213 8.05636 10.6464 8.21759C10.5229 8.25791 10.394 8.27948 10.264 8.28159C10.0141 8.28013 9.81226 8.07712 9.81226 7.8272C9.81226 7.57727 10.0141 7.37426 10.264 7.3728C10.2986 7.37359 10.3329 7.36704 10.3648 7.35359C10.7287 7.26316 11.0425 7.03329 11.2384 6.71359C11.3524 6.52725 11.4122 6.31285 11.4112 6.09441C11.4112 5.376 10.7472 4.784 9.93761 4.784C9.65744 4.78459 9.38207 4.85674 9.13761 4.99359C8.72727 5.20967 8.46591 5.6308 8.45441 6.09441V9.91041C8.44632 10.6976 8.01123 11.4182 7.31841 11.792C6.93808 12.0058 6.50831 12.1162 6.072 12.112C4.75359 12.112 3.672 11.12 3.672 9.8928C3.67433 9.50783 3.78105 9.1307 3.9808 8.80159C4.29255 8.30175 4.77899 7.93564 5.34559 7.77441C5.46929 7.73468 5.59811 7.71312 5.728 7.71041C5.89098 7.70945 6.04198 7.79585 6.12375 7.93683C6.20551 8.07782 6.20551 8.25179 6.12375 8.39278C6.04198 8.53376 5.89098 8.62016 5.728 8.6192C5.69342 8.61841 5.65907 8.62496 5.6272 8.63841C5.26643 8.73544 4.95489 8.96368 4.75361 9.27841C4.63962 9.46475 4.57978 9.67915 4.5808 9.89759C4.5808 10.616 5.2448 11.208 6.064 11.208C6.34417 11.2074 6.61954 11.1353 6.864 10.9984C7.27371 10.7819 7.53441 10.3609 7.54559 9.89759V6.09922C7.55445 5.31141 7.98999 4.59041 8.6832 4.21602C9.05665 3.99223 9.48465 3.87595 9.92 3.88002C11.2384 3.88002 12.32 4.87202 12.32 6.09922C12.3177 6.48419 12.2109 6.86132 12.0112 7.19042V7.19041Z" fill="#1FBF63"/>
</g>
<defs>
<clipPath id="clip0_126_2028">
<rect width="16" height="16" fill="white"/>
</clipPath>
</defs>
</svg>
