<svg width="16" height="16" viewBox="0 0 16 16" fill="none" xmlns="http://www.w3.org/2000/svg">
<path fill-rule="evenodd" clip-rule="evenodd" d="M13.1464 2.14645C13.3417 1.95118 13.6583 1.95118 13.8536 2.14645C14.0488 2.34171 14.0488 2.65829 13.8536 2.85355L9.20711 7.5L13.8536 12.1464C14.0488 12.3417 14.0488 12.6583 13.8536 12.8536C13.6583 13.0488 13.3417 13.0488 13.1464 12.8536L8.5 8.20711L3.85355 12.8536C3.65829 13.0488 3.34171 13.0488 3.14645 12.8536C2.95118 12.6583 2.95118 12.3417 3.14645 12.1464L7.79289 7.5L3.14645 2.85355C2.95118 2.65829 2.95118 2.34171 3.14645 2.14645C3.34171 1.95118 3.65829 1.95118 3.85355 2.14645L8.5 6.79289L13.1464 2.14645Z" fill="#B0B0B0"/>
</svg>
