<svg width="14" height="14" viewBox="0 0 14 14" fill="none" xmlns="http://www.w3.org/2000/svg">
<g clip-path="url(#clip0_131_3258)">
<path d="M8.09201 7.89308C7.38502 7.62114 6.62246 7.52539 5.87019 7.6141C5.11792 7.7028 4.39854 7.9733 3.7742 8.40222C3.14985 8.83114 2.6393 9.4056 2.28663 10.076C1.93397 10.7464 1.74979 11.4925 1.75001 12.25C1.74999 12.4047 1.68852 12.553 1.57912 12.6624C1.46973 12.7718 1.32137 12.8332 1.16668 12.8332C1.01198 12.8332 0.863623 12.7718 0.754229 12.6624C0.644836 12.553 0.583367 12.4047 0.583344 12.25C0.583344 9.79416 2.10118 7.69241 4.25018 6.832C3.67886 6.38172 3.26204 5.76462 3.05766 5.0665C2.85328 4.36837 2.8715 3.62391 3.10979 2.93662C3.34807 2.24933 3.79458 1.65336 4.38724 1.23157C4.9799 0.809781 5.68925 0.58313 6.41668 0.58313C7.1441 0.58313 7.85346 0.809781 8.44611 1.23157C9.03877 1.65336 9.48528 2.24933 9.72357 2.93662C9.96185 3.62391 9.98007 4.36837 9.77569 5.0665C9.57131 5.76462 9.15449 6.38172 8.58318 6.832C8.81068 6.92358 9.03176 7.02858 9.24409 7.14641C8.81441 7.31656 8.42281 7.57036 8.09201 7.89308V7.89308ZM6.41668 6.41666C6.72311 6.41669 7.02655 6.35635 7.30966 6.2391C7.59277 6.12185 7.85002 5.94998 8.06671 5.73331C8.2834 5.51664 8.45528 5.25941 8.57256 4.9763C8.68983 4.6932 8.75019 4.38976 8.75019 4.08333C8.75019 3.7769 8.68983 3.47347 8.57256 3.19036C8.45528 2.90726 8.2834 2.65002 8.06671 2.43335C7.85002 2.21668 7.59277 2.04481 7.30966 1.92756C7.02655 1.81031 6.72311 1.74997 6.41668 1.75C5.79787 1.75005 5.20442 1.9959 4.76688 2.43348C4.32933 2.87106 4.08352 3.46452 4.08352 4.08333C4.08352 4.70214 4.32933 5.2956 4.76688 5.73318C5.20442 6.17076 5.79787 6.41662 6.41668 6.41666V6.41666ZM8.41109 8.4C8.7825 8.00471 9.25749 7.72174 9.78193 7.58333C9.85342 7.71121 9.95756 7.81783 10.0837 7.89233C10.2099 7.96683 10.3535 8.00654 10.5 8.00741C10.6466 8.00665 10.7904 7.96699 10.9166 7.89248C11.0429 7.81797 11.1471 7.71129 11.2187 7.58333C11.7478 7.72158 12.2197 8.00916 12.5895 8.4C12.4495 8.65666 12.4402 8.98041 12.593 9.25341C12.6635 9.38195 12.7669 9.48947 12.8925 9.565C13.0181 9.64053 13.1616 9.68137 13.3082 9.68333C13.3788 9.94291 13.4167 10.2171 13.4167 10.5C13.4167 10.7829 13.3788 11.0571 13.3082 11.3167C13.1616 11.3186 13.0181 11.3595 12.8925 11.435C12.7669 11.5105 12.6635 11.618 12.593 11.7466C12.5203 11.8768 12.4818 12.0233 12.4811 12.1725C12.4804 12.3216 12.5175 12.4685 12.5889 12.5994C12.2176 12.9949 11.7426 13.2781 11.2181 13.4167C11.1466 13.2888 11.0425 13.1822 10.9163 13.1077C10.7902 13.0332 10.6465 12.9935 10.5 12.9926C10.3534 12.9933 10.2096 13.033 10.0834 13.1075C9.95711 13.182 9.85289 13.2887 9.78134 13.4167C9.25691 13.2783 8.78191 12.9953 8.41051 12.6C8.55051 12.3433 8.55984 12.0196 8.40701 11.7466C8.33651 11.618 8.23316 11.5105 8.10752 11.435C7.98187 11.3595 7.83843 11.3186 7.69184 11.3167C7.6195 11.0505 7.58301 10.7758 7.58334 10.5C7.58334 10.2171 7.62126 9.94291 7.69184 9.68333C7.83843 9.68137 7.98187 9.64053 8.10752 9.565C8.23316 9.48947 8.33651 9.38195 8.40701 9.25341C8.47969 9.12318 8.51819 8.97666 8.5189 8.82752C8.51961 8.67839 8.48252 8.5315 8.41109 8.40058V8.4ZM9.33451 9.78775C9.20034 10.0281 8.99618 10.2112 8.75818 10.3197C8.74692 10.4397 8.74692 10.5603 8.75818 10.6802C8.99676 10.7887 9.20034 10.9719 9.33451 11.2122C9.46984 11.4532 9.52059 11.7256 9.48968 11.9892C9.57601 12.0534 9.66759 12.1082 9.76384 12.1549C9.97671 11.9965 10.235 11.911 10.5003 11.911C10.7656 11.911 11.0239 11.9965 11.2368 12.1549C11.3329 12.1082 11.4245 12.0528 11.5103 11.9892C11.4791 11.7204 11.5334 11.4485 11.6655 11.2122C11.7997 10.9719 12.0038 10.7887 12.2418 10.6802C12.2531 10.5603 12.2531 10.4397 12.2418 10.3197C11.9979 10.2085 11.7959 10.0221 11.6655 9.78775C11.5334 9.55151 11.4791 9.27962 11.5103 9.01075C11.4243 8.94718 11.3325 8.89172 11.2362 8.84508C11.0233 9.00346 10.765 9.089 10.4997 9.089C10.2344 9.089 9.97613 9.00346 9.76326 8.84508C9.66715 8.89175 9.57557 8.94721 9.48968 9.01075C9.52059 9.27441 9.46984 9.54683 9.33451 9.78775Z" fill="#1890FF"/>
</g>
<defs>
<clipPath id="clip0_131_3258">
<rect width="14" height="14" fill="white"/>
</clipPath>
</defs>
</svg>
