<svg width="166" height="32" viewBox="0 0 166 32" fill="none" xmlns="http://www.w3.org/2000/svg">
<path d="M49.3781 13.4807V9.9372H55.8162V12.5655H58.4008V8.20067H49.3781V7.4028H56.7091V5.4316H39.345V7.4028H46.629V8.20067H37.7708V12.5655H40.2379V9.9372H46.629V13.4807H49.3781ZM55.0173 12.2369V10.7351H50.1065V12.2369H55.0173ZM45.8771 12.2369V10.7351H41.0133V12.2369H45.8771ZM55.5812 14.654V13.0817H50.1065V14.654H55.5812ZM45.9006 14.654V13.0817H40.4964V14.654H45.9006ZM38.3112 19.6524C41.3892 18.9484 44.8198 17.822 47.6629 16.3905C50.3885 17.7047 54.5474 18.9719 57.649 19.5585C58.0249 18.9015 58.7533 17.8924 59.3407 17.3527C56.2157 16.9772 52.1977 16.1089 49.7541 15.1937C49.9185 15.0999 50.083 14.9825 50.224 14.8887L48.1798 13.5745C45.5952 15.358 40.7313 16.8129 36.8074 17.5404C37.3948 18.1271 37.9822 19.0423 38.3112 19.6524ZM52.6912 26.9036L53.7955 24.8855C53.0906 24.6273 52.1742 24.2988 51.2109 23.9703C53.1376 22.9612 55.2288 21.7175 56.5211 20.4033L54.7354 19.1596L54.3594 19.3004H49.0022L49.7776 18.6903C49.3311 18.1271 48.3678 17.3057 47.6159 16.7425L45.9946 17.9393C46.4645 18.3148 47.0285 18.8311 47.4514 19.3004H40.1204V21.2716H51.7043C50.5295 21.9287 49.1901 22.5153 47.9918 22.9847C46.441 22.5623 44.8668 22.1868 43.5509 21.9052L42.4936 23.5948C45.8536 24.4161 50.412 25.8476 52.6912 26.9036ZM82.4614 8.41187V6.29987H76.1643C75.9294 5.66627 75.5769 4.91534 75.201 4.28174L72.8748 4.98574C73.0863 5.3612 73.2742 5.83054 73.4622 6.29987H67.0476V8.41187H82.4614ZM61.1735 22.8908C62.9592 22.2103 65.0974 21.4124 67.1181 20.6145L66.6717 18.2679L65.2854 18.7607V12.7063H67.0946V10.078H65.2854V5.0092H63.0297V10.078H60.868V12.7063H63.0297V19.5116C62.0663 19.8167 61.2204 20.0748 60.4921 20.286L61.1735 22.8908ZM70.3842 26.5516C70.8541 26.2935 71.5825 26.0588 75.7179 25.2609C75.6474 24.7447 75.6004 23.8529 75.6239 23.2193L72.4049 23.7591V22.3041C73.1803 21.8583 73.8852 21.4124 74.5196 20.8961C75.7884 23.7121 77.9031 25.6129 81.2396 26.4812C81.5451 25.8711 82.203 24.9089 82.7434 24.4161C81.4276 24.1815 80.3232 23.7825 79.3599 23.1959C80.2058 22.7969 81.1221 22.3041 81.9445 21.7175L80.2763 20.4737H82.5554V18.6668H78.9134V17.822H81.4041V16.3201H78.9134V15.4988H81.78V13.7388H78.9134V12.894H81.4981V9.06894H75.342V12.894H76.4933V13.7388H73.1098V12.8471H74.2376V9.06894H68.2695V12.8471H70.7366V13.7388H67.823V15.4988H70.7366V16.3201H68.4104V17.822H70.7366V18.6668H67.2826V20.4737H71.8409C70.0552 21.5063 67.635 22.2807 65.3794 22.7735C65.8023 23.1959 66.4602 24.1345 66.7187 24.6039C67.917 24.2519 69.1858 23.8529 70.3607 23.3132C70.3372 24.2049 69.9142 24.6039 69.5383 24.8151C69.8437 25.1905 70.2432 26.0823 70.3842 26.5516ZM72.1699 11.5329H70.2197V10.3831H72.1699V11.5329ZM79.4304 11.5799H77.3392V10.3831H79.4304V11.5799ZM76.4933 16.3201H73.1098V15.4988H76.4933V16.3201ZM76.4933 18.6668H73.1098V17.822H76.4933V18.6668ZM77.7856 21.9756C77.3627 21.5532 76.9632 21.0369 76.6578 20.4737H80.1118C79.5244 20.9431 78.608 21.5532 77.7856 21.9756ZM92.3535 24.862C96.9589 24.862 100.131 21.4124 100.131 15.7804C100.131 10.1484 96.9589 6.8396 92.3535 6.8396C87.7482 6.8396 84.5761 10.1249 84.5761 15.7804C84.5761 21.4124 87.7482 24.862 92.3535 24.862ZM92.3535 21.8583C89.7689 21.8583 88.1241 19.4881 88.1241 15.7804C88.1241 12.0492 89.7689 9.81987 92.3535 9.81987C94.9382 9.81987 96.5829 12.0492 96.5829 15.7804C96.5829 19.4881 94.9382 21.8583 92.3535 21.8583ZM107.015 24.5335V17.9628H109.436L113.007 24.5335H116.884L112.819 17.4231C114.816 16.6487 116.132 15.0295 116.132 12.4247C116.132 8.43534 113.242 7.16814 109.6 7.16814H103.538V24.5335H107.015ZM109.271 15.2172H107.015V9.91374H109.271C111.503 9.91374 112.725 10.5473 112.725 12.4247C112.725 14.2785 111.503 15.2172 109.271 15.2172ZM120.855 24.5335L122.077 20.0748H127.716L128.938 24.5335H132.58L126.988 7.16814H122.899L117.331 24.5335H120.855ZM126.964 17.3761H122.829L123.346 15.4753C123.863 13.6684 124.38 11.6972 124.826 9.7964H124.92C125.437 11.6737 125.907 13.6684 126.447 15.4753L126.964 17.3761ZM137.914 24.5335V17.5639C137.914 15.5692 137.655 13.3868 137.491 11.5095H137.608L139.37 15.2407L144.399 24.5335H147.923V7.16814H144.634V14.0908C144.634 16.062 144.892 18.3617 145.08 20.1687H144.963L143.224 16.414L138.172 7.16814H134.624V24.5335H137.914ZM159.695 24.862C162.115 24.862 164.159 23.9233 165.334 22.7735V14.9356H159.155V17.7751H162.233V21.2012C161.739 21.6236 160.893 21.8583 160.047 21.8583C156.64 21.8583 154.902 19.582 154.902 15.8039C154.902 12.0727 156.922 9.81987 159.813 9.81987C161.387 9.81987 162.374 10.4535 163.22 11.2748L165.076 9.06894C163.948 7.91907 162.209 6.8396 159.695 6.8396C155.066 6.8396 151.354 10.1953 151.354 15.9212C151.354 21.7175 154.949 24.862 159.695 24.862Z" fill="#222222"/>
<path fill-rule="evenodd" clip-rule="evenodd" d="M10.3189 13.5035C10.3189 10.3385 12.853 7.76349 15.9697 7.76349C19.0855 7.76349 21.6212 10.3385 21.6212 13.5035V18.4969C21.6212 21.662 19.0855 24.237 15.9697 24.237C12.853 24.237 10.3189 21.662 10.3189 18.4969V13.5035ZM28.2137 30.9336V13.5035C28.2137 6.64631 22.721 1.06689 15.9697 1.06689L3.72646 13.5027V13.5035V18.4969C3.72646 25.3646 9.20877 30.9336 15.9697 30.9336H28.2137Z" fill="#0D36C9"/>
<path fill-rule="evenodd" clip-rule="evenodd" d="M10.1608 13.5035H3.72646L15.9713 1.06689V7.60124C15.9713 10.8615 13.3696 13.5035 10.1608 13.5035Z" fill="#34C7F3"/>
</svg>
