<svg width="130" height="23" viewBox="0 0 130 23" fill="none" xmlns="http://www.w3.org/2000/svg">
<path d="M13.3781 9.48067V5.9372H19.8162V8.56547H22.4008V4.20067H13.3781V3.4028H20.7091V1.4316H3.34504V3.4028H10.629V4.20067H1.77076V8.56547H4.23791V5.9372H10.629V9.48067H13.3781ZM19.0173 8.23694V6.73507H14.1065V8.23694H19.0173ZM9.87712 8.23694V6.73507H5.0133V8.23694H9.87712ZM19.5812 10.654V9.08174H14.1065V10.654H19.5812ZM9.90061 10.654V9.08174H4.49637V10.654H9.90061ZM2.31118 15.6524C5.38925 14.9484 8.81976 13.822 11.6629 12.3905C14.3885 13.7047 18.5474 14.9719 21.649 15.5585C22.0249 14.9015 22.7533 13.8924 23.3407 13.3527C20.2157 12.9772 16.1977 12.1089 13.7541 11.1937C13.9185 11.0999 14.083 10.9825 14.224 10.8887L12.1798 9.57454C9.59515 11.358 4.73134 12.8129 0.807396 13.5404C1.39481 14.1271 1.98223 15.0423 2.31118 15.6524ZM16.6912 22.9036L17.7955 20.8855C17.0906 20.6273 16.1742 20.2988 15.2109 19.9703C17.1376 18.9612 19.2288 17.7175 20.5211 16.4033L18.7354 15.1596L18.3594 15.3004H13.0022L13.7776 14.6903C13.3311 14.1271 12.3678 13.3057 11.6159 12.7425L9.9946 13.9393C10.4645 14.3148 11.0285 14.8311 11.4514 15.3004H4.12043V17.2716H15.7043C14.5295 17.9287 13.1901 18.5153 11.9918 18.9847C10.441 18.5623 8.86676 18.1868 7.55094 17.9052L6.49359 19.5948C9.85362 20.4161 14.412 21.8476 16.6912 22.9036ZM46.4614 4.41187V2.29987H40.1643C39.9294 1.66627 39.5769 0.915338 39.201 0.281738L36.8748 0.985738C37.0863 1.3612 37.2742 1.83054 37.4622 2.29987H31.0476V4.41187H46.4614ZM25.1735 18.8908C26.9592 18.2103 29.0974 17.4124 31.1181 16.6145L30.6717 14.2679L29.2854 14.7607V8.70627H31.0946V6.078H29.2854V1.0092H27.0297V6.078H24.868V8.70627H27.0297V15.5116C26.0663 15.8167 25.2204 16.0748 24.4921 16.286L25.1735 18.8908ZM34.3842 22.5516C34.8541 22.2935 35.5825 22.0588 39.7179 21.2609C39.6474 20.7447 39.6004 19.8529 39.6239 19.2193L36.4049 19.7591V18.3041C37.1803 17.8583 37.8852 17.4124 38.5196 16.8961C39.7884 19.7121 41.9031 21.6129 45.2396 22.4812C45.5451 21.8711 46.203 20.9089 46.7434 20.4161C45.4276 20.1815 44.3232 19.7825 43.3599 19.1959C44.2058 18.7969 45.1221 18.3041 45.9445 17.7175L44.2763 16.4737H46.5554V14.6668H42.9134V13.822H45.4041V12.3201H42.9134V11.4988H45.78V9.7388H42.9134V8.894H45.4981V5.06894H39.342V8.894H40.4933V9.7388H37.1098V8.84707H38.2376V5.06894H32.2695V8.84707H34.7366V9.7388H31.823V11.4988H34.7366V12.3201H32.4104V13.822H34.7366V14.6668H31.2826V16.4737H35.8409C34.0552 17.5063 31.635 18.2807 29.3794 18.7735C29.8023 19.1959 30.4602 20.1345 30.7187 20.6039C31.917 20.2519 33.1858 19.8529 34.3607 19.3132C34.3372 20.2049 33.9142 20.6039 33.5383 20.8151C33.8437 21.1905 34.2432 22.0823 34.3842 22.5516ZM36.1699 7.53294H34.2197V6.38307H36.1699V7.53294ZM43.4304 7.57987H41.3392V6.38307H43.4304V7.57987ZM40.4933 12.3201H37.1098V11.4988H40.4933V12.3201ZM40.4933 14.6668H37.1098V13.822H40.4933V14.6668ZM41.7856 17.9756C41.3627 17.5532 40.9632 17.0369 40.6578 16.4737H44.1118C43.5244 16.9431 42.608 17.5532 41.7856 17.9756ZM56.3535 20.862C60.9589 20.862 64.1309 17.4124 64.1309 11.7804C64.1309 6.1484 60.9589 2.8396 56.3535 2.8396C51.7482 2.8396 48.5761 6.12494 48.5761 11.7804C48.5761 17.4124 51.7482 20.862 56.3535 20.862ZM56.3535 17.8583C53.7689 17.8583 52.1241 15.4881 52.1241 11.7804C52.1241 8.0492 53.7689 5.81987 56.3535 5.81987C58.9382 5.81987 60.583 8.0492 60.583 11.7804C60.583 15.4881 58.9382 17.8583 56.3535 17.8583ZM71.0155 20.5335V13.9628H73.4356L77.0071 20.5335H80.8841L76.8192 13.4231C78.8164 12.6487 80.1322 11.0295 80.1322 8.42467C80.1322 4.43534 77.2421 3.16814 73.6001 3.16814H67.538V20.5335H71.0155ZM73.2712 11.2172H71.0155V5.91374H73.2712C75.5033 5.91374 76.7252 6.54734 76.7252 8.42467C76.7252 10.2785 75.5033 11.2172 73.2712 11.2172ZM84.855 20.5335L86.0769 16.0748H91.716L92.9379 20.5335H96.5799L90.9877 3.16814H86.8992L81.3305 20.5335H84.855ZM90.9642 13.3761H86.8287L87.3457 11.4753C87.8626 9.6684 88.3795 7.6972 88.826 5.7964H88.9199C89.4369 7.67374 89.9068 9.6684 90.4472 11.4753L90.9642 13.3761ZM101.914 20.5335V13.5639C101.914 11.5692 101.655 9.3868 101.491 7.50947H101.608L103.37 11.2407L108.399 20.5335H111.923V3.16814H108.634V10.0908C108.634 12.062 108.892 14.3617 109.08 16.1687H108.963L107.224 12.414L102.172 3.16814H98.6241V20.5335H101.914ZM123.695 20.862C126.115 20.862 128.159 19.9233 129.334 18.7735V10.9356H123.155V13.7751H126.233V17.2012C125.739 17.6236 124.893 17.8583 124.047 17.8583C120.64 17.8583 118.902 15.582 118.902 11.8039C118.902 8.07267 120.922 5.81987 123.813 5.81987C125.387 5.81987 126.374 6.45347 127.22 7.2748L129.076 5.06894C127.948 3.91907 126.209 2.8396 123.695 2.8396C119.066 2.8396 115.354 6.19534 115.354 11.9212C115.354 17.7175 118.949 20.862 123.695 20.862Z" fill="#222222"/>
</svg>
